<?xml version="1.0" encoding="UTF-8" standalone="no"?> <svg id="Layer_1" data-name="Layer 1" xmlns="http://www.w3.org/2000/svg" viewBox="0 0 64 64"><path fill="#fff" d="M9.725,13.486l-1.45,1.377c.186.2,18.39,19.143,44.1,28.455l-2.914,1.391.861,1.8,5.106-2.437a1,1,0,0,0,.471-1.333l-2.436-5.1-1.8.861,1.4,2.941C27.809,32.3,9.908,13.679,9.725,13.486Z"/><path fill="#fff" d="M49,1A14,14,0,1,0,63,15,14,14,0,0,0,49,1ZM42.879,9.879a3,3,0,1,1,0,4.242A3,3,0,0,1,42.879,9.879Zm1.878,10.778-1.414-1.414,9.9-9.9,1.414,1.414Zm10.364-.536a3,3,0,1,1,0-4.242A2.988,2.988,0,0,1,55.121,20.121Z"/><rect fill="#fff" x="49" y="52" width="12" height="11"/><rect fill="#fff" x="26" y="40" width="12" height="23"/><rect fill="#fff" x="3" y="26" width="12" height="37"/></svg>