<svg xmlns="http://www.w3.org/2000/svg" viewBox="0 0 64 64"><path fill="#fff" d="M17.00007,23.06255H14.00013a1.0001,1.0001,0,0,0,.00006,2h1.99994v1a1.0001,1.0001,0,0,0,2-.00006v-1.1842a2.9979,2.9979,0,0,0-1.00006-5.81574h-.99994a1.00011,1.00011,0,0,1,0-2h3a1.0001,1.0001,0,0,0-.00006-2h-.99994v-1a1,1,0,0,0-2,0v1a3.00018,3.00018,0,0,0,.00006,6h.99994A1.00011,1.00011,0,0,1,17.00007,23.06255Z"/><path fill="#fff" d="M29.96918,52.06255a5,5,0,0,0,0-8,5.00053,5.00053,0,0,0-2.96918-9H17.27521c14.8827-.14645,20.30117-20.4098,7.29644-27.92677C14.805,1.223,1.91974,8.61339,2.00025,20.06267A15.1103,15.1103,0,0,0,16.73243,35.06255H7.00013a5.00073,5.00073,0,0,0-2.96906,9,5,5,0,0,0,0,8,5.00049,5.00049,0,0,0,2.96918,8.99994l19.99988.00006A5.00073,5.00073,0,0,0,29.96918,52.06255ZM18.00013,33.01189v-2a10.89539,10.89539,0,0,0,3.605-.97308l1.00152,1.73462A12.87956,12.87956,0,0,1,18.00013,33.01189ZM24.3429,30.78l-1.00562-1.74164a11.08041,11.08041,0,0,0,2.63862-2.63867l1.74169,1.00549A13.10266,13.10266,0,0,1,24.3429,30.78Zm4.36816-5.111-1.73468-1.00146a10.89563,10.89563,0,0,0,.97309-3.60492h2A12.88078,12.88078,0,0,1,28.71106,25.66893Zm0-11.21276a12.88078,12.88078,0,0,1,1.23841,4.60638h-2a10.89569,10.89569,0,0,0-.97309-3.60492Zm-4.36816-5.111A13.10266,13.10266,0,0,1,27.71759,12.72L25.9759,13.72545a11.08041,11.08041,0,0,0-2.63862-2.63867ZM18.00013,7.11321a12.87956,12.87956,0,0,1,4.6065,1.23846l-1.00152,1.73462a10.89587,10.89587,0,0,0-3.605-.97308Zm-1,3.94934c11.93975.49432,11.93628,17.50745-.00006,18a9,9,0,0,1,.00006-18Zm-1-3.94934v2a10.89581,10.89581,0,0,0-3.605.97308L11.39362,8.35167A12.87961,12.87961,0,0,1,16.00013,7.11321ZM9.65735,9.34514,10.663,11.08678a11.08037,11.08037,0,0,0-2.63861,2.63867L6.28266,12.72A13.10266,13.10266,0,0,1,9.65735,9.34514Zm-4.36816,5.111,1.73468,1.00146a10.89544,10.89544,0,0,0-.97308,3.60492h-2A12.88056,12.88056,0,0,1,5.28919,14.45617Zm-1.2384,6.60638h2a10.89538,10.89538,0,0,0,.97308,3.60492L5.28919,25.66893A12.88056,12.88056,0,0,1,4.05079,21.06255ZM9.65735,30.78a13.10266,13.10266,0,0,1-3.37469-3.37482l1.7417-1.00549A11.08037,11.08037,0,0,0,10.663,29.03832Zm6.34278,2.23193a12.87961,12.87961,0,0,1-4.60651-1.23846l1.00153-1.73462a10.89532,10.89532,0,0,0,3.605.97308Zm-12,7.05066a3.00328,3.00328,0,0,1,3-3h20a3,3,0,0,1,0,6h-20A3.00328,3.00328,0,0,1,4.00013,40.06255Zm0,8a3.00328,3.00328,0,0,1,3-3h20a3,3,0,0,1,0,6h-20A3.00328,3.00328,0,0,1,4.00013,48.06255Zm23,11h-20a3.00019,3.00019,0,0,1,.00012-6H27.00013A3.00019,3.00019,0,0,1,27.00013,59.06255Z"/><path fill="#fff" d="M62.00013 24.06255a5.00589 5.00589 0 00-5-5h-20a5.00068 5.00068 0 00-2.96906 9 5 5 0 000 8 5 5 0 000 8 5 5 0 000 8 5.00049 5.00049 0 002.96918 8.99994l19.99988.00006a5.00073 5.00073 0 002.96905-9 5 5 0 000-8 5 5 0 000-8 5 5 0 000-8A4.98135 4.98135 0 0062.00013 24.06255zm-24.99988-3H57.00013a3.00019 3.00019 0 010 6h-20A3.00019 3.00019 0 0137.00025 21.06255zm22.99988 35a3.00328 3.00328 0 01-3 3h-20a3 3 0 010-6h20A3.00328 3.00328 0 0160.00013 56.06255zm0-8a3.00328 3.00328 0 01-3 3h-20a3 3 0 010-6h20A3.00328 3.00328 0 0160.00013 48.06255zm0-8a3.00328 3.00328 0 01-3 3h-20a3 3 0 010-6h20A3.00328 3.00328 0 0160.00013 40.06255zm0-8a3.00328 3.00328 0 01-3 3h-20a3 3 0 010-6h20A3.00328 3.00328 0 0160.00013 32.06255zM30.66028 9.63482a.99966.99966 0 001.40918.123L34.3678 7.82915A.99986.99986 0 1033.08167 6.2979L30.78333 8.22661A.99943.99943 0 0030.66028 9.63482zM28.00013 7.40239a1.00134 1.00134 0 001.36621-.36621l1.5-2.59765a1.00016 1.00016 0 10-1.73242-1l-1.5 2.59765A1.0003 1.0003 0 0028.00013 7.40239zM32.39661 12.64165a1.00161 1.00161 0 001.28174.59766l2.81934-1.02539a.9997.9997 0 10-.6836-1.87891L32.99476 11.3604A1 1 0 0032.39661 12.64165z"/></svg>